<svg width="53" height="37" viewBox="0 0 53 37" fill="none" xmlns="http://www.w3.org/2000/svg">
<path d="M33.6015 0.604553C34.7036 0.939041 35.7149 1.42355 36.5017 2.30174C37.7513 3.69652 38.2842 5.29613 37.901 7.22636C38.6632 7.22636 39.4032 7.22411 40.1432 7.22679C42.2127 7.23444 43.7585 8.71614 43.827 10.7927C43.853 11.5758 43.9022 12.3786 43.7675 13.1417C43.534 14.4642 42.7375 15.425 41.4478 15.8549C40.9431 16.0232 40.8659 16.2651 40.8674 16.7307C40.8826 21.908 40.8815 27.0854 40.8746 32.2629C40.872 34.2616 39.684 35.7853 37.8031 36.209C37.4616 36.286 37.0989 36.2917 36.746 36.2919C30.0347 36.2965 23.3232 36.2576 16.6125 36.3165C14.3567 36.3362 12.4221 34.6578 12.4533 32.1229C12.5168 26.965 12.468 21.8056 12.4802 16.6471C12.4813 16.2402 12.4092 16.033 11.9679 15.892C10.461 15.4108 9.48783 14.0386 9.48792 12.4568C9.48792 11.6564 9.45677 10.8389 9.60169 10.0592C9.91026 8.39888 11.3992 7.23999 13.0933 7.22755C13.8569 7.22203 14.6207 7.22667 15.4222 7.22667C15.0273 5.14178 15.6563 3.43275 17.1192 2.00684C17.8429 1.30157 18.7445 0.914032 19.6865 0.604553H21.2577C22.698 1.03407 23.7545 1.93623 24.5444 3.20107C25.0674 4.0385 25.6494 4.8392 26.2062 5.65567C26.3488 5.86458 26.4958 6.07047 26.6705 6.3203C27.356 5.31352 28.0272 4.39427 28.6269 3.43065C29.4743 2.06947 30.5387 1.0098 32.1427 0.604553H33.6015ZM14.7326 16.0881V16.7063C14.7326 21.8295 14.7613 26.9528 14.7136 32.0754C14.7009 33.4453 15.5842 34.0702 16.6947 34.0639C23.3145 34.0264 29.9348 34.0212 36.5547 34.063C38.1376 34.073 38.6405 33.1629 38.6349 31.9922C38.6101 26.9066 38.6244 21.821 38.6244 16.7352V16.0881C38.3483 16.0881 38.1463 16.0881 37.9443 16.0881C34.3164 16.0881 30.6885 16.0883 27.0606 16.0881C26.0635 16.088 25.4977 15.6458 25.5172 14.8831C25.5341 14.221 26.1198 13.8254 27.0856 13.8252C28.7875 13.8249 30.4891 13.8251 32.191 13.8251C34.8091 13.8251 37.4272 13.8285 40.0452 13.823C40.9978 13.8209 41.5431 13.2743 41.5538 12.3345C41.5588 11.8859 41.5587 11.437 41.5538 10.9883C41.5434 10.0487 41.0025 9.49168 40.049 9.49121C31.1288 9.48582 22.2085 9.4861 13.2883 9.49075C12.3461 9.49121 11.7961 10.0382 11.7579 10.9822C11.74 11.4301 11.7402 11.88 11.7576 12.3281C11.7954 13.3019 12.3454 13.8198 13.3335 13.8242C14.2685 13.8282 15.2037 13.8237 16.1387 13.8255C17.0006 13.8271 17.5832 14.2621 17.5582 14.9114C17.535 15.5146 17.114 16.1719 16.1611 16.0943C15.7173 16.0582 15.2681 16.0881 14.7326 16.0881ZM24.5546 7.22229C23.6892 5.97426 22.9202 4.82857 22.1096 3.713C21.7348 3.19734 21.1937 2.88351 20.537 2.8558C18.719 2.77907 17.0101 5.2182 17.7236 6.88152C17.7868 7.0293 18.0047 7.20625 18.1525 7.20778C20.2414 7.22903 22.3307 7.22229 24.5546 7.22229ZM28.8086 7.12521C28.9376 7.18814 28.9686 7.21646 28.9996 7.21646C31.0556 7.21992 33.1117 7.22903 35.1675 7.20625C35.3205 7.20447 35.5466 7.00232 35.6105 6.84225C36.1733 5.43236 35.0959 3.46242 33.5226 2.96564C32.7297 2.71523 31.9778 2.84723 31.476 3.47398C30.5387 4.64438 29.6997 5.89362 28.8086 7.12521Z" fill="#6E4099"/>
<path d="M4.59418 23.8089C5.52793 23.8087 6.46189 23.8006 7.39558 23.8111C8.22068 23.8202 8.69767 24.2541 8.68378 24.955C8.6706 25.617 8.16975 26.0606 7.40333 26.0629C5.47971 26.0685 3.55595 26.069 1.6323 26.0625C0.865211 26.0598 0.382484 25.6132 0.380378 24.9351C0.378273 24.2478 0.835579 23.8219 1.62464 23.812C2.6143 23.7996 3.60435 23.809 4.59418 23.8089Z" fill="#CA3B96"/>
<path d="M48.8114 23.81C49.7826 23.8096 50.7539 23.7996 51.725 23.8129C52.4812 23.8233 52.9882 24.3039 52.969 24.9565C52.9501 25.5928 52.4478 26.0585 51.7322 26.0615C49.7711 26.0701 47.81 26.071 45.849 26.061C45.1477 26.0574 44.6335 25.5629 44.6292 24.9352C44.6248 24.3081 45.1278 23.8251 45.8419 23.814C46.8315 23.7985 47.8215 23.8101 48.8114 23.81Z" fill="#CA3B96"/>
<path d="M7.4483 21.1596C7.34927 21.1284 7.1261 21.0872 6.92907 20.9919C5.26861 20.1881 3.61142 19.3776 1.95636 18.5626C1.2529 18.2163 0.998593 17.6194 1.27929 17.016C1.57254 16.385 2.21185 16.1851 2.93152 16.5317C4.62671 17.3481 6.31946 18.1706 8.00403 19.0086C8.5769 19.2935 8.80386 19.8145 8.65445 20.3488C8.51968 20.8314 8.08166 21.1593 7.4483 21.1596Z" fill="#CA3B96"/>
<path d="M2.403 33.4993C1.77526 33.4945 1.34352 33.1658 1.20729 32.6787C1.06539 32.1705 1.29424 31.6367 1.81883 31.3672C2.64745 30.9416 3.49013 30.5433 4.32756 30.1352C5.19887 29.7108 6.06819 29.2822 6.94393 28.8673C7.63814 28.5385 8.26567 28.7177 8.57045 29.3118C8.87404 29.9035 8.64269 30.5397 7.95034 30.8837C6.26494 31.7205 4.57067 32.5393 2.87566 33.357C2.69573 33.4439 2.48845 33.4744 2.403 33.4993Z" fill="#CA3B96"/>
<path d="M52.1436 32.1474C52.1385 33.2148 51.3428 33.7613 50.5644 33.3979C48.7758 32.563 47.0058 31.6871 45.2423 30.7998C44.6571 30.5053 44.4842 29.8732 44.755 29.3187C45.0174 28.7816 45.6512 28.5205 46.2254 28.7932C48.0083 29.64 49.7875 30.4969 51.5394 31.4054C51.8505 31.5668 52.0239 31.9939 52.1436 32.1474Z" fill="#CA3B96"/>
<path d="M52.139 17.7444C52.0049 17.9018 51.8035 18.3238 51.4725 18.495C49.7699 19.3767 48.0385 20.2038 46.307 21.0286C45.6571 21.3382 45.013 21.103 44.7423 20.5149C44.4765 19.937 44.6893 19.3281 45.3148 19.0169C47.0322 18.1622 48.7531 17.3139 50.4855 16.4901C51.3162 16.095 52.1507 16.6203 52.139 17.7444Z" fill="#CA3B96"/>
<path d="M33.379 23.6908C33.3719 24.3487 32.9438 25.4562 32.0336 26.349C30.566 27.7886 29.0847 29.2145 27.5989 30.6352C26.9374 31.2678 26.3944 31.258 25.7466 30.6366C24.2901 29.2392 22.8223 27.8532 21.3851 26.4361C20.0995 25.1683 19.644 23.6332 20.1169 21.8757C20.8793 19.0419 23.7808 17.9123 26.27 19.4654C26.5176 19.6199 26.6883 19.7179 27.0051 19.5125C28.3573 18.6355 29.7926 18.4911 31.2482 19.2511C32.5409 19.9261 33.3762 21.4669 33.379 23.6908ZM26.6657 28.3704C27.8788 27.2031 29.0491 26.0784 30.2173 24.9516C30.3515 24.8221 30.5127 24.7011 30.5958 24.542C30.7834 24.1831 30.9905 23.8168 31.0805 23.4282C31.2628 22.6404 30.8285 21.6525 30.2015 21.2675C29.5641 20.8762 28.7624 20.9891 28.0263 21.5763C27.9095 21.6694 27.8009 21.7725 27.6858 21.8678C26.9969 22.4381 26.363 22.4404 25.6586 21.8897C25.3664 21.6612 25.0836 21.4002 24.754 21.2429C23.7792 20.7781 22.8877 21.1225 22.43 22.0953C22.0286 22.9482 22.1572 23.9803 22.8237 24.6443C24.0669 25.8832 25.3419 27.0902 26.6657 28.3704Z" fill="#CA3B96"/>
<path d="M20.3336 14.9096C20.326 14.3232 20.8416 13.8276 21.4587 13.828C22.0531 13.8286 22.6117 14.3536 22.6086 14.909C22.6052 15.534 22.0925 16.0717 21.4866 16.0857C20.8287 16.1007 20.3427 15.6051 20.3336 14.9096Z" fill="#6E4099"/>
</svg>
